<?xml version="1.0" encoding="utf-8"?>
<!-- Generator: Adobe Illustrator 19.0.0, SVG Export Plug-In . SVG Version: 6.00 Build 0)  -->
<svg version="1.1" id="Layer_1" xmlns="http://www.w3.org/2000/svg" xmlns:xlink="http://www.w3.org/1999/xlink" x="0px" y="0px"
	 viewBox="0 0 972 360" style="enable-background:new 0 0 972 360;" xml:space="preserve">
<style type="text/css">
	.st0{fill:#E52833;}
</style>
<g id="XMLID_194_">
	<g id="XMLID_39_">
		<g id="XMLID_42_">
			<path id="XMLID_43_" class="st0" d="M287.3,143.1c30-9.9,43.4,10.8,43.4,10.8c1.9,3,6.1,4.1,9.2,2.5l7.6-3.9
				c3.1-1.6,5.1-5.8,4.4-9.2l-7.5-35.4c-0.7-3.5-4.2-6.3-7.8-6.3l-106.2,0c-3.5,0-6.4,2.9-6.4,6.4v141.3c0,3.5,2.9,6.4,6.4,6.4H257
				c3.5,0,6.4-2.9,6.4-6.4v-64c0-3.5,0-6.5,0-6.5c0-0.1,0-3,0-6.5C263.5,172.3,263.5,151,287.3,143.1z"/>
		</g>
		<g id="XMLID_40_">
			<path id="XMLID_41_" class="st0" d="M274.2,178.9c-3.5,0-5.1,2.6-3.4,5.7l34.8,65.7c1.7,3.1,5.9,5.7,9.4,5.7h31.7
				c3.5,0,5.1-2.6,3.4-5.7l-34.8-65.7c-1.7-3.1-5.9-5.7-9.4-5.7H274.2z"/>
		</g>
	</g>
</g>
<g id="XMLID_205_">
	<path id="XMLID_21_" class="st0" d="M468,249.9c1.2,3.3,5,6.1,8.6,6.1h31.8c3.5,0,5.5-2.7,4.3-6.1l-50.3-142.2
		c-1.2-3.3-5-6.1-8.6-6.1H422c-3.5,0-7.4,2.7-8.6,6.1l-50.3,142.2c-1.2,3.3,0.8,6.1,4.3,6.1l54.8,0c3.5,0,7.4-2.7,8.6-6.1l9.7-27.3
		c1.2-3.3-0.8-6.1-4.3-6.1l-10.2,0c-3.5,0-5.5-2.7-4.3-6.1l14-39.7c1.2-3.3,3.1-3.3,4.3,0L468,249.9z"/>
</g>
<g id="XMLID_190_">
	<path id="XMLID_23_" class="st0" d="M746.1,141c3.5,0,6.4-2.9,6.4-6.4V108c0-3.5-2.9-6.4-6.4-6.4h-3.8c-3.5,0-9.3,0-12.9,0h-24.9
		c-3.5,0-9.3,0-12.9,0h-26.6c-3.5,0-6.4,2.9-6.4,6.4v26.6c0,3.5,0,9.3,0,12.9v5.2c0,3.5,0,9.3,0,12.9v26.6c0,3.5,0,9.3,0,12.9v5.2
		c0,3.5,0,9.3,0,12.9v26.6c0,3.5,2.9,6.4,6.4,6.4h26.6c3.5,0,9.3,0,12.9,0h41.6c3.5,0,6.4-2.9,6.4-6.4V223c0-3.5-2.9-6.4-6.4-6.4
		h-3.8c-3.5,0-9.3,0-12.9,0h-24.9c-3.5,0-6.4-2.9-6.4-6.4v-5.2c0-3.5,2.9-6.4,6.4-6.4h26.9c3.5,0,6.4-2.9,6.4-6.4v-26.6
		c0-3.5-2.9-6.4-6.4-6.4h-26.9c-3.5,0-6.4-2.9-6.4-6.4v-5.2c0-3.5,2.9-6.4,6.4-6.4H746.1z"/>
</g>
<g id="XMLID_236_">
	<path id="XMLID_16_" class="st0" d="M848.4,101.6c-3.5,0-6.4,2.9-6.4,6.4v57.3c0,3.5-1.4,3.9-3,0.7l-31.2-58.8
		c-1.7-3.1-5.9-5.7-9.4-5.7h-26.6c-3.5,0-6.4,2.2-6.4,4.9c0,2.7,0,7.8,0,11.3v131.7c0,3.5,2.9,6.4,6.4,6.4h26.6
		c3.5,0,6.4-2.9,6.4-6.4v-57.3c0-3.5,1.4-3.9,3-0.7l31.2,58.8c1.7,3.1,5.9,5.7,9.4,5.7H875c3.5,0,6.4-2.9,6.4-6.4v-64.3
		c0-3.5,0-9.3,0-12.9V108c0-3.5-2.9-6.4-6.4-6.4H848.4z"/>
</g>
<path id="XMLID_195_" class="st0" d="M176.5,184.5c-1.7-3.1-1.7-8.2,0-11.4l34.9-65.8c1.7-3.1,0.1-5.7-3.4-5.7h-31.8
	c-3.5,0-7.8,2.6-9.4,5.7l-31.6,59.7h0l-3.3,6.2c-1.7,3.1-3,2.8-3-0.7v-5.4V108c0-3.5-2.9-6.4-6.4-6.4H95.9c-3.5,0-6.4,2.9-6.4,6.4
	v141.5c0,3.5,2.9,6.4,6.4,6.4h26.6c3.5,0,6.4-2.9,6.4-6.4v-56.7v-7.6c0-3.5,1.4-3.9,3-0.7l34.9,65.8c1.7,3.1,5.9,5.7,9.4,5.7H208
	c3.5,0,5.1-2.6,3.4-5.7L176.5,184.5z"/>
<path id="XMLID_152_" class="st0" d="M611.2,184.5c-1.7-3.1-1.7-8.2,0-11.4l34.9-65.8c1.7-3.1,0.1-5.7-3.4-5.7h-31.8
	c-3.5,0-7.8,2.6-9.4,5.7l-31.6,59.7l0,0l-3.3,6.2c-1.7,3.1-3,2.8-3-0.7v-5.4V108c0-3.5-2.9-6.4-6.4-6.4h-26.6
	c-3.5,0-6.4,2.9-6.4,6.4v141.5c0,3.5,2.9,6.4,6.4,6.4h26.6c3.5,0,6.4-2.9,6.4-6.4v-56.7v-7.6c0-3.5,1.4-3.9,3-0.7l34.9,65.8
	c1.7,3.1,5.9,5.7,9.4,5.7h31.8c3.5,0,5.1-2.6,3.4-5.7L611.2,184.5z"/>
</svg>
