<?xml version="1.0" encoding="utf-8"?>
<!-- Generator: Adobe Illustrator 19.0.0, SVG Export Plug-In . SVG Version: 6.00 Build 0)  -->
<svg version="1.1" id="Layer_1" xmlns="http://www.w3.org/2000/svg" xmlns:xlink="http://www.w3.org/1999/xlink" x="0px" y="0px"
	 viewBox="0 0 1000 1000" style="enable-background:new 0 0 1000 1000;" xml:space="preserve">
<style type="text/css">
	.st0{fill:#E82533;}
</style>
<rect id="XMLID_1178_" x="545.3" y="523.8" class="st0" width="6" height="6"/>
<rect id="XMLID_1179_" x="527.2" y="499.8" class="st0" width="6" height="6"/>
<rect id="XMLID_1180_" x="467.2" y="499.8" class="st0" width="6" height="6"/>
<rect id="XMLID_1184_" x="527.2" y="523.8" class="st0" width="6" height="6"/>
<rect id="XMLID_1188_" x="467.2" y="523.8" class="st0" width="6" height="6"/>
<rect id="XMLID_1189_" x="509.2" y="523.8" class="st0" width="6" height="6"/>
<path id="XMLID_1209_" class="st0" d="M467.2,499.8h6v6h-6V499.8z"/>
<path id="XMLID_1225_" class="st0" d="M467.2,523.8h6v6h-6V523.8z"/>
<path id="XMLID_1283_" class="st0" d="M533.2,505.8h-6v-6h6V505.8z"/>
<path id="XMLID_1289_" class="st0" d="M515.2,529.8h-6v-6h6V529.8z"/>
<path id="XMLID_1293_" class="st0" d="M533.2,529.8h-6v-6h6V529.8z"/>
<path id="XMLID_1299_" class="st0" d="M551.3,529.8h-6v-6h6V529.8z"/>
<g id="XMLID_1_">
	<path id="XMLID_35_" class="st0" d="M131,265.2c1.2,9,2.6,17.7,4.2,25.9c13.4,9.1,32.4,21.1,54.7,31.1
		C173.1,307.2,150.5,284.9,131,265.2z"/>
	<path id="XMLID_75_" class="st0" d="M131,265.2c19.4,19.6,42.1,41.9,58.9,56.9c-22.3-9.9-41.3-22-54.7-31.1
		C133.6,282.9,132.2,274.2,131,265.2z"/>
	<path id="XMLID_76_" class="st0" d="M199.7,439.4c13.9,6.6,25.7,11.4,34.6,14.8c-14.4-10.9-34.1-26.5-52.4-41.1
		C187.3,421.9,193.2,430.6,199.7,439.4z"/>
	<path id="XMLID_82_" class="st0" d="M199.7,439.4c-6.5-8.8-12.4-17.5-17.9-26.3c18.3,14.6,38,30.1,52.4,41.1
		C225.3,450.8,213.6,445.9,199.7,439.4z"/>
	<path id="XMLID_83_" class="st0" d="M810.1,322.2c22.3-9.9,41.3-22,54.7-31.1c1.6-8.2,3-16.9,4.2-25.9
		C849.5,284.9,826.9,307.2,810.1,322.2z"/>
	<path id="XMLID_89_" class="st0" d="M864.8,291.1c-13.4,9.1-32.4,21.1-54.7,31.1c16.7-15,39.4-37.3,58.9-56.9
		C867.8,274.2,866.4,282.9,864.8,291.1z"/>
	<path id="XMLID_90_" class="st0" d="M800.3,439.4c6.5-8.8,12.4-17.5,17.9-26.3c-18.3,14.6-38,30.1-52.4,41.1
		C774.7,450.8,786.4,445.9,800.3,439.4z"/>
	<path id="XMLID_96_" class="st0" d="M800.3,439.4c-13.9,6.6-25.7,11.4-34.6,14.8c14.4-10.9,34.1-26.5,52.4-41.1
		C812.7,421.9,806.8,430.6,800.3,439.4z"/>
</g>
<path id="XMLID_608_" class="st0" d="M356.3,480c0-3.7-3-6.8-6.8-6.8s-6.8,3-6.8,6.8s3,6.8,6.8,6.8S356.3,483.7,356.3,480z"/>
<path id="XMLID_1429_" class="st0" d="M500.2,626.5c-3.7,0-6.8,3-6.8,6.8s3,6.8,6.8,6.8c3.7,0,6.8-3,6.8-6.8
	S503.9,626.5,500.2,626.5z"/>
<path id="XMLID_1433_" class="st0" d="M356.3,265c0-3.7-3-6.8-6.8-6.8s-6.8,3-6.8,6.8s3,6.8,6.8,6.8S356.3,268.7,356.3,265z"/>
<path id="XMLID_1435_" class="st0" d="M650.9,258.2c-3.7,0-6.8,3-6.8,6.8s3,6.8,6.8,6.8s6.8-3,6.8-6.8S654.6,258.2,650.9,258.2z"/>
<path id="XMLID_1436_" class="st0" d="M644.1,480c0,3.7,3,6.8,6.8,6.8s6.8-3,6.8-6.8s-3-6.8-6.8-6.8S644.1,476.3,644.1,480z"/>
<path id="XMLID_1445_" class="st0" d="M725.4,245.3l-9.7-19.6c-11.7-1-23.8-1.7-36.5-2.1c-12.6-0.4-24.8-0.5-36.5-0.3l-9.6,16.6
	l-23.7-1.4v30.1v213.7c0,60.3-48.9,109.2-109.2,109.2c-60.3,0-109.2-48.9-109.2-109.2V268.5v-30.1l-24.1,1.4l-9.6-16.6
	c-11.7-0.2-23.9-0.1-36.5,0.3c-12.6,0.4-24.8,1.2-36.5,2.1l-9.7,19.7l-27.8,1.7v21.5l60.6,23.5v190.2c0,30.7,7.2,59.7,19.9,85.4
	l-9.7,25.5c7.2,9.2,15,18.6,23.3,28.2c8.3,9.5,16.5,18.5,24.6,26.9l26.9-6.1c17.5,11.8,37,20.8,57.8,26.4l13,24.3
	c11.7,0.6,23.9,0.9,36.5,0.9c12.6,0,24.8-0.3,36.5-0.9l12.9-24c21.3-5.6,41.1-14.7,58.9-26.6l26.9,6.1c8.1-8.4,16.4-17.4,24.6-26.9
	c8.3-9.5,16-18.9,23.3-28.2l-9.7-25.5c12.7-25.7,19.9-54.7,19.9-85.4V292l60.6-23.5V247L725.4,245.3z M696.3,268.2h-34.7
	c-1.1,3.6-4,6.5-7.6,7.6v193.5c4.7,1.4,8.1,5.6,8.1,10.8c0,5.2-3.6,9.6-8.4,10.9c-4.2,77.3-65.6,139.5-142.6,144.9
	c-1.2,5-5.6,8.7-10.9,8.7c-5.3,0-9.8-3.7-10.9-8.7c-76.9-5.4-138.4-67.7-142.6-144.9c-4.8-1.3-8.4-5.6-8.4-10.9
	c0-5.1,3.5-9.4,8.1-10.8V275.8c-3.7-1.1-6.5-3.9-7.6-7.6h-34.7c-1.7,0-3-1.3-3-3c0-1.7,1.3-3,3-3h34.6c1.3-4.9,5.6-8.5,10.9-8.5
	c6.2,0,11.3,5,11.3,11.3c0,5.2-3.6,9.6-8.4,10.8v193.3c4.8,1.3,8.4,5.6,8.4,10.8c0,5.1-3.4,9.3-8,10.7c4.1,74.1,63,133.7,136.8,139
	c1.5-4.5,5.7-7.8,10.7-7.8s9.2,3.3,10.7,7.8c73.8-5.3,132.7-64.9,136.8-139c-4.6-1.4-8-5.7-8-10.7c0-5.2,3.6-9.6,8.4-10.8V275.8
	c-4.8-1.3-8.4-5.6-8.4-10.8c0-6.2,5.1-11.3,11.3-11.3c5.2,0,9.6,3.6,10.9,8.5h34.6c1.7,0,3,1.3,3,3
	C699.3,266.9,698,268.2,696.3,268.2z"/>
<g id="XMLID_1417_">
	<path id="XMLID_1418_" class="st0" d="M500.2,837c-71.4,0-160.4,12-236.4,32.8c78.6-16.7,174.2-23.8,236.4-23.8
		s157.9,7.1,236.4,23.8C660.5,849,571.5,837,500.2,837z"/>
</g>
<g id="XMLID_1438_">
	<path id="XMLID_1439_" class="st0" d="M103.4,232.8c-9.1-78.4,2.9-163.7,2.9-171.7c0,0,54.1,107.8,134.2,184.1v27.5l60.6,23.5
		v186.1c0,30,6.5,58.8,19.4,85.7l-7.9,20.8C246,524.5,199.2,473,166.9,425.9c50.4,27.8,85.2,37.6,85.2,37.6
		c-19.1-12.8-84.9-65.7-116-90.9c-14-30.1-23-61.2-28.2-96.5c16.2,10.4,52,39.4,98.2,55.9C183.7,314.9,128.4,258.5,103.4,232.8z"/>
</g>
<g id="XMLID_1440_">
	<path id="XMLID_1442_" class="st0" d="M896.6,232.8c9.1-78.4-2.9-163.7-2.9-171.7c0,0-54.1,107.8-134.2,184.1v27.5L699,296.1v186.1
		c0,30-6.5,58.8-19.4,85.7l7.9,20.8C754,524.5,800.8,473,833.1,425.9c-50.4,27.8-85.2,37.6-85.2,37.6c19.1-12.8,84.9-65.7,116-90.9
		c14-30.1,23-61.2,28.2-96.5c-16.2,10.4-52,39.4-98.2,55.9C816.3,314.9,871.6,258.5,896.6,232.8z"/>
</g>
<path id="XMLID_41_" class="st0" d="M500,277.2c-39.9,0-76.1,8.1-103,21.4v183.6c0,56.9,46.3,103.2,103.2,103.2
	c56.9,0,103.2-46.3,103.2-103.2V298.8C576.5,285.4,540.1,277.2,500,277.2z M458.2,532.8h-12v-12h12V532.8z M458.2,508.8h-12v-12h12
	V508.8z M476.2,532.8h-12v-12h12V532.8z M476.2,508.8h-12v-12h12V508.8z M500.2,532.8h-12v-12h12V532.8z M482.2,508.8v-12h12v12
	H482.2z M518.2,532.8h-12v-12h12V532.8z M518.2,508.8h-12v-12h12V508.8z M536.2,532.8h-12v-12h12V532.8z M536.2,508.8h-12v-12h12
	V508.8z M554.3,532.8h-12v-12h12V532.8z M554.3,508.8h-12v-12h12V508.8z M567.9,475.6h-43.7L484.1,400v75.6h-38.6V324.4h38.6V400
	l40.1-75.6h43.7L527.8,400L567.9,475.6z"/>
<g id="XMLID_1401_">
	<path id="XMLID_1416_" class="st0" d="M362.7,816.8c0.1-35.3,0.2-53,0.3-88.3c10.8,0,16.2,0,27,0c-0.1,26.8-0.1,40.3-0.2,67.1
		c15.6-0.9,23.4-1.2,39.1-1.8c0,7.4,0,11.1,0,18.4C402.3,813.5,389.1,814.4,362.7,816.8z"/>
	<path id="XMLID_1415_" class="st0" d="M320.3,728.5c-0.1,28.9-0.1,43.4-0.2,72.3c-13,1.2-19.4,1.8-32.4,3.3
		c0-30.2,0.1-45.3,0.1-75.5c-10.8,0-16.2,0-27,0c0,40.4,0,60.5,0,100.9c0,0,11.6-1.8,20.3-3.1c19.4-2.8,45.5-5.9,45.5-5.9
		c8.7-1,20.4-2.2,20.4-2.2c0.1-35.9,0.2-53.8,0.3-89.7C336.5,728.5,331.1,728.5,320.3,728.5z"/>
	<path id="XMLID_1414_" class="st0" d="M469.1,810.9c-10.8,0.2-16.3,0.4-27.1,0.8c0.1-25.9,0.1-38.9,0.1-64.8
		c-9.9,0.1-14.8,0.1-24.6,0.3c0-7.4,0-11.1,0-18.6c30.5,0,45.8,0,76.3,0c0,7.2,0,10.8,0,18.1c-9.9,0-14.8,0-24.6,0.1
		C469.2,772.4,469.2,785.2,469.1,810.9L469.1,810.9z"/>
	<path id="XMLID_1413_" class="st0" d="M506.5,810.6c0-32.8,0-49.2,0-82.1c11.1,0,16.6,0,27.6,0c0,33,0.1,49.5,0.1,82.4
		C523.1,810.7,517.6,810.7,506.5,810.6z"/>
	<path id="XMLID_1412_" class="st0" d="M739.5,829.4c-23.9-3.8-35.8-5.4-59.8-8.3c-0.1-37.1-0.1-55.6-0.2-92.6c24,0,36,0,60.1,0
		c0,8.6,0,13,0,21.6c-13-0.4-19.4-0.6-32.4-1c0,6,0,8.9,0,14.9c12,0.6,18,0.9,30,1.6c0,8.6,0,12.9,0,21.5c-12-1.1-18-1.6-29.9-2.6
		c0,7.3,0,11,0,18.3c12.9,1.4,19.4,2.1,32.3,3.7C739.5,815.7,739.5,820.3,739.5,829.4z"/>
	<path id="XMLID_1411_" class="st0" d="M647.8,728.5c-3.5,0-5.3,0-8.8,0c-6.5,0-9.7,0-16.2,0c-6.5,19.8-9.8,29.5-16.3,48.7
		c-6.6-19.8-10-29.5-16.6-48.7c-6.5,0-9.7,0-16.2,0c-3.5,0-5.3,0-8.8,0c-6.1,0-9.2,0-15.3,0c0.1,33.1,0.1,49.7,0.1,82.9
		c9.6,0.3,14.5,0.5,24.1,1c-0.1-23.4-0.1-35.1-0.1-58.5c8.1,23.5,12.2,35.4,20.4,59.6c10,0.6,15,1,25,1.7c8-23.6,12-35.5,20-59.9
		c0.1,24.7,0.1,37,0.2,61.7c9.6,0.9,14.4,1.4,24,2.4c-0.1-36.3-0.2-54.5-0.3-90.8C657,728.5,654,728.5,647.8,728.5z"/>
</g>
<g id="XMLID_963_">
	<g id="XMLID_1398_">
		<path id="XMLID_1399_" class="st0" d="M418,893c3.9,0,7.5,0.9,10.7,2.7s5.6,4.4,7.4,7.8s2.7,7.2,2.7,11.6c0,7.7-2.3,13.5-6.9,17.6
			c-4.6,4.1-11.6,6.1-20.9,6.1c-8,0-14.5-1.2-19.6-3.7V920c2.7,1.2,5.8,2.3,9.2,3.1c3.4,0.8,6.4,1.2,8.8,1.2c3.4,0,6.1-0.7,7.9-2.2
			c1.8-1.5,2.8-3.6,2.8-6.5c0-2.6-0.9-4.7-2.8-6.1c-1.9-1.5-4.7-2.2-8.5-2.2c-2.9,0-6.1,0.5-9.4,1.6l-6.8-3.4l2.6-36.2h39.1v15.4
			h-23.4l-0.8,9.1c2.4-0.5,4.2-0.7,5.2-0.8C416.2,893.1,417.2,893,418,893z"/>
	</g>
	<g id="XMLID_1265_">
		<path id="XMLID_1266_" class="st0" d="M474.3,893c3.9,0,7.5,0.9,10.7,2.7s5.6,4.4,7.4,7.8s2.7,7.2,2.7,11.6
			c0,7.7-2.3,13.5-6.9,17.6c-4.6,4.1-11.6,6.1-20.9,6.1c-8,0-14.5-1.2-19.6-3.7V920c2.7,1.2,5.8,2.3,9.2,3.1
			c3.4,0.8,6.4,1.2,8.8,1.2c3.4,0,6.1-0.7,7.9-2.2c1.8-1.5,2.8-3.6,2.8-6.5c0-2.6-0.9-4.7-2.8-6.1c-1.9-1.5-4.7-2.2-8.5-2.2
			c-2.9,0-6.1,0.5-9.4,1.6l-6.8-3.4l2.6-36.2h39.1v15.4h-23.4l-0.8,9.1c2.4-0.5,4.2-0.7,5.2-0.8C472.5,893.1,473.5,893,474.3,893z"
			/>
	</g>
	<g id="XMLID_1261_">
		<path id="XMLID_1263_" class="st0" d="M552.1,938h-49.8v-12.2l16.8-16.9c4.8-5,7.9-8.4,9.4-10.3s2.5-3.4,3.1-4.7
			c0.6-1.3,0.9-2.7,0.9-4.1c0-1.8-0.6-3.2-1.7-4.2s-2.8-1.5-4.9-1.5c-2.2,0-4.3,0.6-6.5,1.9c-2.2,1.2-4.7,3.1-7.5,5.5l-10.2-11.9
			c3.5-3.2,6.5-5.4,8.9-6.8c2.4-1.4,5-2.4,7.9-3.1c2.8-0.7,6-1.1,9.5-1.1c4.4,0,8.4,0.8,11.9,2.3c3.5,1.6,6.2,3.8,8.1,6.7
			c1.9,2.9,2.9,6.1,2.9,9.7c0,2.7-0.3,5.2-1,7.5c-0.7,2.3-1.7,4.5-3.1,6.7c-1.4,2.2-3.3,4.5-5.6,7c-2.3,2.4-7.3,7.1-14.9,13.9v0.5
			h25.9V938z"/>
	</g>
	<g id="XMLID_1245_">
		<path id="XMLID_1246_" class="st0" d="M584.1,868.4c7.2,0,12.9,1.5,16.9,4.4c4,2.9,6,7,6,12.4c0,3.6-0.9,6.8-2.8,9.5
			c-1.9,2.7-4.9,5.1-9,7.2c5.1,2.9,8.6,5.7,10.7,8.6c2.1,2.9,3.1,6,3.1,9.3c0,6.1-2.2,10.8-6.6,14.2s-10.6,5-18.5,5
			c-8.1,0-14.2-1.6-18.5-4.9s-6.4-8-6.4-14.1c0-4,1-7.4,2.9-10.2c1.9-2.8,5.1-5.3,9.6-7.6c-3.6-2.4-6.3-5.1-8-7.9
			c-1.7-2.8-2.5-5.9-2.5-9.2c0-5.3,2-9.3,6.1-12.3C571.3,869.9,576.9,868.4,584.1,868.4z M576,919.2c0,1.9,0.7,3.5,2.1,4.7
			c1.4,1.2,3.3,1.8,5.7,1.8c5.5,0,8.3-2,8.3-6.1c0-1.5-0.6-3-1.8-4.5c-1.2-1.5-3.4-3.1-6.5-5c-2.8,1.5-4.8,3-6,4.4
			C576.6,915.9,576,917.5,576,919.2z M584,881.8c-1.6,0-2.9,0.5-4,1.4c-1.1,0.9-1.6,2.1-1.6,3.6c0,2.7,1.8,5.1,5.5,7.1
			c2.2-1.3,3.7-2.5,4.6-3.5c0.8-1.1,1.2-2.3,1.2-3.6c0-1.5-0.5-2.7-1.6-3.6C586.9,882.2,585.6,881.8,584,881.8z"/>
	</g>
</g>
</svg>
